<?xml version="1.0" standalone="no"?>
<!DOCTYPE svg PUBLIC "-//W3C//DTD SVG 20010904//EN"
 "http://www.w3.org/TR/2001/REC-SVG-20010904/DTD/svg10.dtd">
<svg version="1.0" xmlns="http://www.w3.org/2000/svg"
 width="656.000000pt" height="656.000000pt" viewBox="0 0 656.000000 656.000000"
 preserveAspectRatio="xMidYMid meet">
<metadata>
Created by potrace 1.11, written by Peter Selinger 2001-2013
</metadata>
<g transform="translate(0.000000,656.000000) scale(0.100000,-0.100000)"
fill="#000000" stroke="none">
<path d="M390 6316 l0 -246 293 0 293 0 0 -1899 0 -1899 -251 0 c-137 0 -269
-1 -292 -1 l-43 -1 0 -243 0 -242 1068 1 c587 1 1092 4 1122 7 30 3 91 9 135
12 44 4 87 8 95 10 8 2 39 7 69 10 30 4 64 11 77 15 12 5 24 7 26 4 5 -4 199
37 272 58 22 6 43 12 46 13 23 4 192 64 260 92 112 46 205 93 316 159 l91 54
134 -40 c74 -23 172 -52 219 -66 47 -14 99 -30 116 -35 17 -5 40 -11 50 -14
50 -10 312 -101 381 -131 17 -8 34 -14 38 -14 14 0 179 -86 241 -125 105 -67
181 -173 214 -295 6 -25 15 -60 20 -78 9 -36 7 -293 -3 -331 -37 -140 -73
-220 -134 -293 -45 -55 -142 -135 -198 -163 -22 -11 -43 -24 -47 -30 -4 -5 -8
-7 -8 -3 0 4 -24 -4 -52 -16 -52 -23 -198 -64 -248 -70 -14 -2 -54 -7 -90 -12
-82 -11 -410 -12 -510 -1 -325 35 -570 160 -696 353 -51 80 -109 217 -121 289
-2 11 -8 36 -13 56 -10 35 -19 128 -25 244 -2 33 -3 63 -4 66 -1 6 -75 11
-131 10 -33 -1 -131 0 -252 2 l-127 2 -3 -98 c-2 -54 -1 -100 1 -103 3 -3 3
-279 0 -302 -1 -4 -1 -11 0 -17 2 -10 1 -290 0 -303 -1 -4 -1 -9 0 -12 1 -3 3
-83 4 -179 l2 -175 60 -23 c78 -30 315 -114 336 -118 9 -2 47 -12 85 -24 69
-20 222 -60 259 -67 11 -2 55 -11 98 -20 85 -17 91 -18 192 -35 103 -17 161
-23 310 -36 176 -15 641 -8 742 11 11 3 43 7 70 11 28 3 93 15 144 26 52 11
104 22 116 25 12 2 34 9 48 14 14 5 25 7 25 4 0 -4 6 -2 13 3 6 6 26 14 42 18
17 5 32 9 35 10 3 1 22 9 44 18 21 9 40 17 43 17 2 0 45 21 96 46 386 194 607
517 673 984 10 71 11 370 1 435 -13 85 -28 159 -37 185 -6 14 -11 34 -13 45
-2 11 -11 37 -20 59 -9 21 -17 41 -17 45 0 13 -61 123 -101 184 -56 82 -206
230 -299 293 -212 145 -437 242 -833 359 -103 31 -197 58 -209 60 -11 3 -23 7
-26 9 -2 3 25 65 61 138 82 168 146 343 178 493 7 33 13 62 14 65 3 13 19 97
20 110 1 8 6 35 10 60 3 25 8 63 10 85 2 22 7 72 10 110 9 101 10 409 1 423
-13 22 28 12 98 -24 160 -80 268 -202 343 -382 37 -90 82 -298 87 -402 1 -13
36 -15 251 -15 l250 0 0 559 0 558 -50 18 c-50 18 -260 79 -293 85 -9 2 -17 4
-17 5 0 2 -12 4 -55 13 -14 3 -32 8 -40 11 -8 3 -26 7 -40 10 -14 2 -52 11
-85 19 -66 17 -63 17 -220 47 -144 27 -174 32 -269 45 -22 3 -41 7 -42 8 -1 1
-13 40 -27 87 -78 260 -204 503 -365 705 -88 110 -243 259 -357 345 -33 25
-66 51 -73 58 -7 6 -17 12 -22 12 -5 0 -15 6 -22 13 -18 18 -193 117 -206 117
-6 0 -12 4 -14 8 -3 8 -218 105 -258 117 -3 1 -57 18 -120 37 -107 34 -229 65
-325 84 -22 4 -42 8 -45 9 -3 1 -30 5 -60 9 -30 5 -62 10 -70 11 -8 2 -42 6
-76 10 -33 3 -83 9 -110 12 -27 3 -552 8 -1166 10 l-1118 4 0 -245z m2100 80
c91 -3 176 -8 190 -10 14 -3 52 -7 85 -10 33 -3 85 -10 115 -15 30 -6 74 -13
97 -16 63 -9 275 -62 362 -91 263 -87 473 -198 666 -352 338 -269 546 -593
665 -1036 21 -79 31 -100 46 -103 10 -1 39 -5 64 -8 117 -13 253 -35 380 -61
41 -9 86 -18 100 -20 14 -3 43 -10 65 -16 22 -6 45 -11 50 -13 42 -9 76 -17
109 -26 22 -6 46 -12 55 -14 48 -11 208 -58 222 -66 15 -7 16 -51 17 -426 l0
-419 -99 -1 c-108 -1 -102 -5 -113 67 -3 19 -10 50 -15 68 -5 17 -8 32 -6 32
2 0 -12 43 -31 97 -91 258 -238 427 -462 530 -82 38 -98 44 -212 74 -41 11
-83 22 -94 26 -17 5 -18 1 -12 -48 11 -98 20 -263 20 -369 -1 -108 -13 -339
-18 -349 -2 -3 -6 -29 -10 -56 -5 -42 -19 -124 -40 -230 -2 -11 -12 -47 -22
-80 -10 -33 -19 -64 -20 -70 -4 -19 -46 -131 -77 -205 -42 -101 -89 -187 -159
-294 -32 -49 -58 -92 -58 -96 0 -6 34 -20 60 -24 3 -1 25 -7 50 -15 115 -35
201 -61 270 -81 41 -12 94 -28 118 -36 23 -8 47 -14 52 -14 24 0 331 -115 424
-159 345 -164 542 -363 629 -636 41 -128 52 -213 51 -410 0 -152 -4 -200 -19
-271 -3 -12 -7 -39 -11 -60 -10 -61 -61 -207 -99 -280 -149 -285 -431 -483
-817 -573 -252 -59 -536 -81 -848 -67 -115 5 -200 12 -275 22 -22 2 -60 7 -85
10 -62 7 -307 52 -350 63 -19 6 -64 17 -100 26 -36 9 -69 17 -75 19 -5 1 -30
8 -55 15 -94 25 -360 114 -376 125 -14 11 -16 38 -15 235 0 122 3 227 6 232 4
5 3 9 -2 9 -4 0 -7 78 -5 172 1 95 2 194 2 220 -1 33 3 48 12 49 43 3 180 1
184 -3 2 -3 7 -25 9 -49 13 -104 28 -188 43 -239 9 -30 16 -57 17 -60 4 -32
86 -201 111 -231 8 -8 14 -19 14 -22 0 -20 117 -143 184 -193 108 -82 327
-172 476 -198 14 -2 41 -7 60 -10 86 -15 138 -18 330 -21 113 -2 228 1 255 5
28 4 75 11 105 14 84 10 243 53 329 88 121 50 209 107 296 193 125 122 197
262 229 443 16 90 19 275 5 347 -5 28 -11 61 -14 75 -9 50 -46 144 -81 207
-116 207 -383 355 -939 518 -105 31 -245 73 -382 115 -54 16 -118 35 -143 41
l-45 12 -85 -55 c-110 -71 -257 -148 -369 -192 -84 -33 -292 -100 -343 -110
-13 -2 -54 -12 -93 -21 -38 -9 -77 -16 -85 -17 -8 0 -35 -4 -60 -8 -82 -15
-161 -25 -290 -36 -41 -4 -521 -7 -1067 -8 l-991 -1 -4 45 c-2 25 -2 63 0 85
l3 40 289 -1 c204 -1 290 2 293 10 3 10 1 4079 -2 4099 0 4 -131 7 -291 7
-186 0 -290 4 -291 10 0 6 0 35 0 65 0 94 0 93 24 97 40 5 1747 0 1917 -6z"/>
<path d="M1608 6223 c-4 -7 -3 -4086 1 -4104 1 -8 854 -3 916 5 86 11 141 18
160 22 11 2 34 6 50 9 238 38 491 136 685 268 41 28 92 62 113 76 20 13 34 28
30 32 -5 4 -53 30 -108 59 -195 101 -344 216 -422 323 -21 29 -40 54 -43 57
-10 8 -75 142 -92 190 -74 200 -94 505 -48 739 25 129 103 305 178 400 52 66
162 168 237 220 108 75 335 176 438 195 12 3 22 5 22 6 0 1 8 3 19 5 10 2 39
8 65 14 60 13 95 19 216 32 132 14 125 10 113 56 -5 21 -14 56 -20 78 -84 331
-248 629 -455 831 -91 88 -240 204 -263 204 -4 0 -10 4 -12 9 -4 11 -185 103
-258 131 -59 23 -139 51 -155 55 -5 1 -30 7 -55 14 -25 7 -54 15 -65 17 -11 2
-31 6 -45 9 -53 12 -137 27 -170 30 -19 2 -53 7 -75 11 -60 10 -952 17 -957 7z
m952 -167 c14 -4 45 -8 70 -11 25 -2 56 -6 70 -9 14 -3 48 -10 75 -16 112 -23
93 -18 220 -60 151 -50 357 -162 457 -247 66 -57 176 -169 218 -223 110 -141
212 -343 263 -516 l15 -51 -72 -11 c-39 -6 -82 -14 -96 -17 -14 -3 -34 -7 -45
-9 -174 -34 -388 -122 -545 -225 -99 -64 -259 -219 -317 -306 -168 -251 -229
-524 -200 -890 27 -345 166 -630 396 -815 24 -19 48 -40 55 -45 6 -6 36 -26
66 -45 30 -19 58 -39 62 -45 18 -25 -284 -149 -452 -185 -214 -46 -315 -54
-705 -55 l-330 0 0 1899 -1 1898 386 -5 c212 -2 396 -7 410 -11z"/>
<path d="M4040 4603 c-8 -3 -22 -7 -30 -10 -8 -3 -24 -8 -35 -10 -49 -9 -171
-46 -182 -55 -7 -6 -13 -8 -13 -4 0 9 -112 -49 -179 -91 -59 -38 -181 -154
-181 -172 0 -6 -3 -11 -8 -11 -11 0 -67 -105 -90 -170 -19 -50 -25 -74 -40
-150 -12 -59 -5 -370 9 -387 2 -3 2 -4 13 -53 25 -107 127 -268 218 -342 89
-72 356 -215 383 -204 22 8 153 285 170 361 2 6 14 48 28 95 22 73 33 121 51
215 2 11 7 42 10 69 4 27 9 52 10 55 2 3 7 44 11 91 3 47 8 101 10 120 7 62 7
332 0 430 -11 155 -8 145 -43 146 -39 1 -45 6 -47 41 -1 28 -32 45 -65 36z
m-3 -224 c9 -167 3 -445 -12 -549 -3 -19 -7 -53 -10 -75 -3 -22 -7 -51 -10
-65 -3 -14 -7 -41 -10 -60 -19 -114 -83 -326 -135 -443 l-21 -48 -71 39 c-108
59 -192 130 -238 199 -42 65 -85 179 -94 254 -7 53 -8 206 -3 234 3 11 8 40
12 65 9 60 51 165 86 215 64 95 169 175 296 227 75 30 178 58 198 54 5 -2 11
-22 12 -47z"/>
</g>
</svg>
