<svg xmlns="http://www.w3.org/2000/svg" viewBox="0 0 232.07 70.44"><defs><style>.cls-1{fill:#fff;}</style></defs><title>Optoma Logo</title><path class="cls-1" d="M79.9,24.8c11.13,0,19.94,9.23,18,21.43C96.06,58,84.92,67.31,73.28,67.16,61.87,67,53.46,57.8,55.31,46A25.54,25.54,0,0,1,79.9,24.8ZM74.16,60.28c7.71,0,15.32-6.67,16.59-14.31,1.38-8.39-4.2-14.28-11.8-14.28s-15.14,6.49-16.44,14.4C61.26,53.72,66.29,60.28,74.16,60.28Z" transform="translate(-5.81 -9.07)"/><path class="cls-1" d="M102.64,40.11h6.42l-.35,2.22a10.37,10.37,0,0,1,8.35-2.84c7.84.63,10.46,7.72,9.56,13.66-1.09,7.19-6.26,13.45-14.1,13.69a8.33,8.33,0,0,1-7.21-3l-2.5,15.68H96.38Zm9.42,20.66c3.19,0,6.86-2,8-7.54,1-4.62-1.26-7.69-5.36-7.69-3.57,0-7.35,3.17-7.9,7.62C106.1,58.72,109.07,60.81,112.06,60.77Z" transform="translate(-5.81 -9.07)"/><path class="cls-1" d="M132.1,46.19h-2.72l1-6.08h2.72l1.36-8.53h6.41l-1.36,8.53h4.25l-1,6.08h-4.22l-3.18,20h-6.42Z" transform="translate(-5.81 -9.07)"/><path class="cls-1" d="M142.62,53c1.28-7.78,8.31-13.58,15.6-13.58S171,45.24,169.9,53.12A16.22,16.22,0,0,1,154,66.85C146.35,66.66,141.41,60.37,142.62,53ZM163.51,53c.68-4.58-1.85-7.37-5.92-7.44a9.07,9.07,0,0,0-8.58,7.7c-.78,4.62,2,7.54,5.9,7.54C159.3,60.76,162.9,57.11,163.51,53Z" transform="translate(-5.81 -9.07)"/><path class="cls-1" d="M200.55,46.78a1.71,1.71,0,0,0-1.46-1.19,4.18,4.18,0,0,0-4.26,1.81c-1.09,1.54-1.55,4.12-1.79,5.76l-2,13h-6.45l2.32-14.48c.5-3.5.66-6.17-1.9-6.17-4.11,0-5,4.79-5.45,7.63l-2.05,13H171l4.12-26.09h6.44L181.32,42a6.41,6.41,0,0,1,5.4-2.53,6.8,6.8,0,0,1,5.57,3,10.88,10.88,0,0,1,7.54-3c4.41,0,6,2.5,6.62,3.81s1.07,3.66.48,7.69l-2.4,15.23h-6.45l2.31-14.48C201.1,47.84,200.55,46.78,200.55,46.78Z" transform="translate(-5.81 -9.07)"/><path class="cls-1" d="M233.76,66.18h-6.4l.38-2.17a10.66,10.66,0,0,1-8,2.81c-5.61-.09-11.37-5.31-9.91-13.86,1.37-8,7.38-13.5,14.53-13.5,5,0,6.78,2.87,6.78,2.87l.36-2.22h6.4ZM224.4,45.5c-4.54,0-7.56,4.09-8.15,7.71-.65,4.11,1.31,7.56,5.27,7.56s7.44-3.22,8.13-7.67C230.44,48.07,227.84,45.5,224.4,45.5Z" transform="translate(-5.81 -9.07)"/><path class="cls-1" d="M26.1,39S6.8,36.87,5.83,27.75C4.94,19.53,36.2,10,64.89,9.16,110,7.88,135.15,21.22,135.15,21.22s-26.56-7-63.41-3.91c-33.13,2.77-48.09,10.27-49.89,15C20.52,35.82,26.1,39,26.1,39Z" transform="translate(-5.81 -9.07)"/></svg>