<svg xmlns="http://www.w3.org/2000/svg" viewBox="0 0 232.07 70.44"><defs><style>.cls-1{fill:#fff;}</style></defs><title>Optoma Logo</title><g id="Layer_2" data-name="Layer 2"><g id="Layer_1-2" data-name="Layer 1"><path class="cls-1" d="M74.09,15.73c11.13,0,19.94,9.22,18,21.43-1.85,11.77-13,21.08-24.63,20.93-11.41-.15-19.81-9.36-18-21.19A25.52,25.52,0,0,1,74.09,15.73ZM68.35,51.21c7.71,0,15.32-6.67,16.59-14.31,1.38-8.4-4.2-14.29-11.8-14.29S58,29.11,56.7,37C55.45,44.65,60.48,51.21,68.35,51.21Z"/><path class="cls-1" d="M96.83,31h6.43l-.36,2.22a10.37,10.37,0,0,1,8.35-2.84c7.84.63,10.46,7.71,9.56,13.65-1.09,7.2-6.26,13.46-14.1,13.7a8.31,8.31,0,0,1-7.21-3L97,70.44H90.57Zm9.42,20.66c3.19,0,6.86-2,8-7.54,1-4.62-1.26-7.69-5.36-7.69-3.57,0-7.35,3.17-7.9,7.62C100.29,49.65,103.26,51.74,106.25,51.7Z"/><path class="cls-1" d="M126.29,37.12h-2.71l1-6.08h2.71l1.36-8.53H135L133.65,31h4.25l-1,6.08h-4.22l-3.18,20h-6.42Z"/><path class="cls-1" d="M136.81,43.94c1.28-7.77,8.31-13.57,15.6-13.57s12.83,5.79,11.68,13.68a16.22,16.22,0,0,1-15.86,13.73C140.54,57.59,135.6,51.3,136.81,43.94Zm20.89,0c.68-4.58-1.85-7.37-5.91-7.44a9.07,9.07,0,0,0-8.59,7.69c-.78,4.63,2,7.55,5.9,7.55C153.49,51.69,157.09,48,157.7,43.89Z"/><path class="cls-1" d="M194.75,37.71a1.7,1.7,0,0,0-1.47-1.19A4.18,4.18,0,0,0,189,38.33c-1.09,1.54-1.55,4.12-1.79,5.75l-2,13h-6.45l2.32-14.48c.5-3.5.66-6.18-1.9-6.18-4.11,0-5,4.8-5.45,7.63l-2.05,13h-6.43L169.35,31h6.45l-.29,1.89a6.43,6.43,0,0,1,5.4-2.53,6.8,6.8,0,0,1,5.57,3,10.84,10.84,0,0,1,7.54-3c4.41,0,6,2.5,6.62,3.81s1.07,3.65.48,7.69l-2.4,15.23h-6.45l2.31-14.48C195.3,38.77,194.75,37.71,194.75,37.71Z"/><path class="cls-1" d="M228,57.1h-6.41l.39-2.16a10.69,10.69,0,0,1-8,2.81c-5.62-.09-11.38-5.31-9.92-13.86,1.37-8,7.38-13.5,14.53-13.5,5,0,6.78,2.86,6.78,2.86l.36-2.21h6.4Zm-9.37-20.67c-4.54,0-7.56,4.09-8.14,7.71-.66,4.11,1.3,7.56,5.26,7.56s7.44-3.22,8.13-7.68C224.63,39,222,36.43,218.59,36.43Z"/><path class="cls-1" d="M20.29,29.92S1,27.8,0,18.68C-.87,10.46,30.39.9,59.08.09c45.09-1.28,70.26,12.06,70.26,12.06s-26.56-7-63.41-3.91C32.8,11,17.84,18.51,16.05,23.24,14.71,26.75,20.29,29.92,20.29,29.92Z"/></g></g></svg>